<svg xmlns="http://www.w3.org/2000/svg" width="85" height="102" viewBox="0 0 85 102">
    <g fill="#F36" fill-rule="evenodd">
        <path d="M35.98 53.695c-9.352 0-16.96-7.8-16.96-17.386 0-9.588 7.608-17.387 16.96-17.387s16.96 7.8 16.96 17.387c0 9.586-7.608 17.386-16.96 17.386m20.96-17.386c0-11.85-9.402-21.488-20.96-21.488-11.558 0-20.96 9.64-20.96 21.488 0 11.848 9.402 21.486 20.96 21.486 11.558 0 20.96-9.638 20.96-21.486"/>
        <path d="M18.18 18.15c.478 0 .958-.175 1.34-.53 4.519-4.184 10.365-6.49 16.46-6.49 3.408 0 6.705.702 9.801 2.085 1.012.452 2.192-.022 2.633-1.06.44-1.039-.022-2.247-1.035-2.7A27.78 27.78 0 0 0 35.98 7.03c-7.09 0-13.887 2.68-19.142 7.548a2.088 2.088 0 0 0-.144 2.896c.396.448.94.676 1.486.676M13.284 22.009a2.024 2.024 0 0 0-2.732.852 28.996 28.996 0 0 0-3.298 13.424 2.024 2.024 0 1 0 4.048 0c0-4.019.98-8.01 2.833-11.542.52-.99.14-2.214-.85-2.734"/>
        <path d="M56.667 85.66c-6.305 0-11.435-5.132-11.435-11.44 0-6.309 5.13-11.44 11.435-11.44 6.304 0 11.434 5.131 11.434 11.44 0 6.308-5.13 11.44-11.434 11.44M36.156 96.357c-2.868-3.869-9.152-12.538-15.371-22.382C9.835 56.64 4.048 43.608 4.048 36.285c0-17.713 14.404-32.124 32.108-32.124 17.703 0 32.107 14.41 32.107 32.124 0 5.055-2.713 12.741-8.066 22.857a15.393 15.393 0 0 0-3.53-.412c-8.537 0-15.482 6.949-15.482 15.49 0 3.787 1.367 7.26 3.631 9.954a388.713 388.713 0 0 1-8.66 12.183M84.407 98.3l-15.12-15.127a15.403 15.403 0 0 0 2.862-8.953c0-5.884-3.297-11.012-8.14-13.633 5.51-10.494 8.302-18.665 8.302-24.302C72.31 16.34 56.09.111 36.156.111 16.219.111 0 16.34 0 36.285c0 19.324 33.138 62.836 34.549 64.679a2.024 2.024 0 0 0 3.213 0c.046-.06 4.48-5.863 10.073-14.033a15.381 15.381 0 0 0 8.832 2.778c3.747 0 7.187-1.34 9.868-3.563l15.01 15.018c.396.396.913.594 1.431.594s1.036-.198 1.431-.594c.79-.79.79-2.073 0-2.864"/>
    </g>
</svg>
