<svg xmlns="http://www.w3.org/2000/svg" xmlns:xlink="http://www.w3.org/1999/xlink" width="79" height="95" viewBox="0 0 79 95">
    <defs>
        <path id="a" d="M.118 0H79v94.881H.118z"/>
    </defs>
    <g fill="none" fill-rule="evenodd">
        <mask id="b" fill="#fff">
            <use xlink:href="#a"/>
        </mask>
        <path fill="#F36" d="M58.464 53.831c-1.637 0-3.217.218-4.746.58V6.973C53.718 3.13 50.601 0 46.76 0H6.958C3.124 0 0 3.131 0 6.973v81.054C0 91.87 3.124 95 6.958 95H46.76a6.82 6.82 0 0 0 4.19-1.445c2.33.919 4.86 1.445 7.514 1.445C69.789 95 79 85.77 79 74.42c0-11.35-9.211-20.589-20.536-20.589zm-9.065 2.142c-.101.047-.202.093-.295.146-.345.178-.685.364-1.017.566a9.766 9.766 0 0 0-.517.317c-.308.186-.61.378-.903.588-.185.13-.371.277-.555.417-.456.347-.894.71-1.319 1.089-.21.186-.409.364-.61.558-.223.224-.44.447-.656.679-.186.194-.363.388-.531.588-.21.24-.417.487-.618.734-.162.202-.316.418-.47.627-.324.448-.634.913-.935 1.392-.13.215-.278.441-.4.665a20.022 20.022 0 0 0-.795 1.577c-.132.285-.262.572-.379.865-.114.295-.215.588-.316.883-.122.346-.239.694-.34 1.043-.122.441-.238.88-.34 1.322-.045.231-.092.455-.13.687a16.91 16.91 0 0 0-.185 1.223c-.024.208-.053.41-.07.617-.007.093-.023.186-.03.28H3.163V12.662h47.4v42.762c-.403.162-.788.364-1.165.548zM6.958 3.17H46.76a3.809 3.809 0 0 1 3.804 3.802v2.529h-47.4v-2.53a3.805 3.805 0 0 1 3.794-3.801zm40.487 88.597a3.296 3.296 0 0 1-.685.061H6.958a3.805 3.805 0 0 1-3.794-3.802V75.996h34.839c.024.287.04.566.07.851.03.202.068.402.1.612.085.617.21 1.229.355 1.824.046.192.093.378.139.564.193.681.408 1.344.655 1.996.04.085.061.17.093.247a20.865 20.865 0 0 0 2.346 4.267c.085.115.176.232.261.348.401.533.826 1.051 1.274 1.546.109.115.207.232.316.348a20.829 20.829 0 0 0 3.735 3.1c.03.023.06.053.098.069zm11.019.061c-2.362 0-4.614-.47-6.666-1.328l-.363-.162c-.13-.063-.255-.133-.385-.194a17.415 17.415 0 0 1-1.606-.867c-.138-.085-.284-.17-.425-.261-.238-.156-.47-.319-.7-.489-.17-.123-.34-.247-.502-.378a12.737 12.737 0 0 1-1.15-.982c-.324-.3-.64-.611-.934-.936a9.289 9.289 0 0 1-.462-.51 18.31 18.31 0 0 1-.517-.642c-.123-.162-.247-.324-.37-.494-.162-.224-.332-.456-.48-.687-.106-.162-.2-.325-.292-.487a19.948 19.948 0 0 1-.733-1.322c-.085-.186-.178-.364-.262-.55-.11-.256-.216-.51-.316-.766a20.3 20.3 0 0 1-.247-.657c-.077-.24-.162-.471-.24-.71a18.859 18.859 0 0 1-.339-1.315c-.04-.186-.061-.37-.1-.556-.062-.34-.115-.689-.155-1.045-.023-.17-.045-.339-.061-.509a17.114 17.114 0 0 1-.077-1.561c0-.543.03-1.07.077-1.594.016-.186.045-.372.07-.556.039-.332.092-.665.145-.99.048-.225.085-.44.133-.656.06-.287.138-.566.215-.844.069-.231.124-.465.201-.696.13-.426.285-.843.455-1.253.116-.27.239-.54.37-.811l.254-.533c.14-.271.286-.534.44-.797.093-.163.194-.317.294-.48.162-.263.324-.524.5-.771.093-.133.186-.256.279-.38.37-.495.772-.974 1.188-1.43.1-.108.184-.217.285-.318.217-.224.448-.44.68-.65.13-.122.262-.246.392-.361.24-.21.486-.41.733-.604.124-.1.255-.194.387-.293.269-.202.547-.404.84-.588l.055-.04a17.646 17.646 0 0 1 3.501-1.731c.101-.038.21-.077.309-.115l.472-.162a17.363 17.363 0 0 1 5.107-.766c9.58 0 17.372 7.808 17.372 17.419 0 9.6-7.791 17.408-17.372 17.408z" mask="url(#b)"/>
        <rect width="31.846" height="1" x="10.577" y="54.577" stroke="#F36" stroke-width="1.154" rx=".5"/>
        <rect width="31.846" height="1" x="10.577" y="43.577" fill="#F36" stroke="#F36" stroke-width="1.154" rx=".5"/>
        <rect width="31.846" height="1" x="10.577" y="34.577" stroke="#F36" stroke-width="1.154" rx=".5"/>
        <rect width="31.846" height="1" x="10.577" y="24.577" stroke="#F36" stroke-width="1.154" rx=".5"/>
        <path fill="#F36" d="M67.426 72.431H59.57v-7.857c0-.869-.698-1.574-1.564-1.574-.868 0-1.574.705-1.574 1.574v7.857h-7.857a1.57 1.57 0 1 0 0 3.138h7.857v7.857a1.57 1.57 0 1 0 3.138 0V75.57h7.857a1.57 1.57 0 0 0 0-3.137zM27.505 78C23.92 78 21 80.92 21 84.495A6.514 6.514 0 0 0 27.505 91C31.08 91 34 88.08 34 84.495 34 80.92 31.08 78 27.505 78zm0 9.747a3.257 3.257 0 0 1-3.252-3.252 3.255 3.255 0 0 1 3.252-3.242 3.253 3.253 0 0 1 3.242 3.242 3.255 3.255 0 0 1-3.242 3.252zM20.494 8h6.012C27.334 8 28 7.328 28 6.5c0-.826-.666-1.5-1.494-1.5h-6.012C19.666 5 19 5.674 19 6.5c0 .828.666 1.5 1.494 1.5zM31.667 8h1.666C34.251 8 35 7.328 35 6.5c0-.826-.75-1.5-1.667-1.5h-1.666C30.749 5 30 5.674 30 6.5c0 .828.75 1.5 1.667 1.5z"/>
    </g>
</svg>
