<svg xmlns="http://www.w3.org/2000/svg" xmlns:xlink="http://www.w3.org/1999/xlink" width="93" height="85" viewBox="0 0 93 85">
    <defs>
        <path id="a" d="M0 0h110v101H0z"/>
    </defs>
    <g fill="none" fill-rule="evenodd">
        <g transform="translate(-9 -8)">
            <mask id="b" fill="#fff">
                <use xlink:href="#a"/>
            </mask>
            <path fill="#F36" d="M98.389 79.604v9.613H86.167v-6.32H83.11v6.32h-55v-1.58h-3.055v1.58H12.833v-9.613c4.993-.868 8.36-5.758 7.52-10.922-.647-3.986-3.666-7.109-7.52-7.779V51.29h12.223v4.741h3.055v-4.74H98.39v9.612c-4.993.868-8.36 5.758-7.52 10.923.647 3.986 3.666 7.109 7.52 7.778zM37.91 48.13L57.14 28.24l14.645 15.149-4.583 4.74H37.91zm25.34-35.693l4.748 4.911c-2.943 4.261-1.99 10.183 2.13 13.228a8.92 8.92 0 0 0 10.658 0l6.276 6.491L76.368 48.13H71.52l3.504-3.624a1.619 1.619 0 0 0 0-2.235L58.219 24.888a1.492 1.492 0 0 0-2.16 0L33.589 48.13h-4.845L63.25 12.437zm36.667 51.496c.843 0 1.527-.708 1.527-1.58V49.71c0-.873-.684-1.58-1.527-1.58H80.688l9.614-9.945a1.619 1.619 0 0 0 0-2.235l-8.347-8.635a1.492 1.492 0 0 0-2.16 0 5.97 5.97 0 0 1-8.645 0c-2.387-2.469-2.387-6.472 0-8.941a1.619 1.619 0 0 0 0-2.235l-6.82-7.054a1.492 1.492 0 0 0-2.16 0L24.423 48.13H11.306c-.844 0-1.528.707-1.528 1.58v12.642c0 .873.684 1.58 1.528 1.58 3.375 0 6.11 2.83 6.11 6.322 0 3.49-2.735 6.321-6.11 6.321-.844 0-1.528.708-1.528 1.58v12.643c0 .873.684 1.58 1.528 1.58h88.61c.844 0 1.528-.707 1.528-1.58V78.155c0-.872-.684-1.58-1.527-1.58-3.375 0-6.111-2.83-6.111-6.321 0-3.491 2.736-6.321 6.11-6.321z" mask="url(#b)"/>
        </g>
        <path fill="#F36" d="M74.111 52.772h3.056v-6.321H74.11zM74.111 62.254h3.056v-6.321H74.11zM74.111 71.736h3.056v-6.322H74.11zM16.056 57.513h3.055v-6.321h-3.055zM16.056 66.995h3.055v-6.322h-3.055zM16.056 76.477h3.055v-6.322h-3.055zM66.472 70.354c-2.15.58-3.83 2.318-4.39 4.542H31.14c-.56-2.224-2.24-3.962-4.391-4.542v-16.2c2.15-.58 3.83-2.318 4.39-4.543h30.941c.56 2.225 2.24 3.963 4.391 4.542v16.201zM68 51.192c-1.688 0-3.056-1.415-3.056-3.16 0-.874-.684-1.581-1.527-1.581H29.806c-.844 0-1.528.707-1.528 1.58 0 1.746-1.368 3.16-3.056 3.16-.843 0-1.528.708-1.528 1.581v18.964c0 .873.685 1.58 1.528 1.58 1.688 0 3.056 1.415 3.056 3.16 0 .873.684 1.58 1.528 1.58h33.61c.844 0 1.528-.707 1.528-1.58 0-1.745 1.368-3.16 3.056-3.16.844 0 1.528-.707 1.528-1.58V52.772c0-.873-.684-1.58-1.528-1.58z"/>
    </g>
</svg>
